<svg width="346" height="119" viewBox="0 0 346 119" fill="none" xmlns="http://www.w3.org/2000/svg">
<g clip-path="url(#clip0_31_3901)">
<path d="M51.1493 44.8756C50.8327 47.0052 46.5159 77.1653 46.113 79.9856H55.7731C56.0705 77.856 60.4065 47.6863 60.8094 44.8756H51.1397H51.1493Z" fill="#003F7E"/>
<path d="M130.281 44.8756C129.974 47.0052 125.648 77.1653 125.245 79.9856H147.923C148.134 78.4412 148.719 74.3738 148.997 72.4073H135.26L136.191 65.9129H148.652C148.872 64.4068 149.4 60.7615 149.669 58.8429H137.198L138.119 52.4444H151.482C151.712 50.9 152.287 46.8326 152.575 44.8756H130.262H130.281Z" fill="#003F7E"/>
<path d="M22.5817 64.9823C22.5817 64.9823 30.6589 46.4776 31.3017 44.866H43.475C43.475 47.3218 41.8538 77.4819 41.873 79.9761H33.1147L34.5632 55.3894C34.5632 55.3894 24.7113 78.4028 24.059 79.9761H17.1329L14.0248 55.3894C13.8042 56.5118 10.5138 72.9253 8.71995 79.9761H0C0.911326 76.8488 7.5784 46.6695 8.106 44.866H19.8285L22.5817 64.9823Z" fill="#003F7E"/>
<path d="M113.283 72.8773C113.283 72.8773 113.916 78.5947 114.127 79.9856H123.403C122.885 77.0886 117.83 46.9285 117.455 44.8756H105.723C105.052 46.3433 91.6506 76.5322 90.0677 79.9856H99.4784C99.9868 78.8057 102.366 72.8773 102.366 72.8773H113.292H113.283ZM105.013 65.6251L110.549 52.5979L112.362 65.6251H105.013Z" fill="#003F7E"/>
<path d="M74.297 51.4563H76.4554C77.9327 51.4563 79.5827 51.6098 80.5996 52.7994C81.319 53.6339 81.5781 54.8139 81.367 56.3104C81.367 56.3104 81.0696 58.9964 79.3045 59.8501C79.3045 59.8501 78.0862 60.6368 76.0717 60.6943H71.6974L79.9569 79.9856H89.3387L82.2496 65.1838C86.5472 64.3972 89.9047 63.1117 90.7489 56.4542C90.864 55.6197 90.9311 54.8139 90.9311 54.0656C90.9311 51.6002 90.2884 49.6049 89.003 48.1276C86.6719 45.4416 82.6716 44.8756 79.717 44.8756H66.45C66.1431 47.0052 61.8263 77.1653 61.4042 79.9761H70.22C70.5078 78.0095 74.2874 51.4563 74.2874 51.4563" fill="#003F7E"/>
<path d="M345.277 0C339.637 23.3587 319.386 36.0885 307.472 42.8899L306.963 42.2088C311.856 38.2373 328.615 25.8721 333.967 5.38162L345.287 0.00959291L345.277 0Z" fill="#F08300"/>
<path d="M251.459 61.3466C251.363 61.3658 251.257 61.3754 251.152 61.3946C251.248 61.3754 251.353 61.3658 251.459 61.3466Z" fill="#003F7E"/>
<path d="M264.131 58.8333C264.304 58.7949 264.476 58.7565 264.649 58.7182C264.476 58.7565 264.294 58.7949 264.112 58.8333H264.141H264.131Z" fill="#003F7E"/>
<path d="M248.706 61.7975C248.495 61.8359 248.312 61.855 248.101 61.8934C248.303 61.855 248.495 61.8359 248.706 61.7975Z" fill="#003F7E"/>
<path d="M245.291 62.3251C245.348 62.3251 245.415 62.3059 245.482 62.2963C245.415 62.2963 245.348 62.3155 245.291 62.3251Z" fill="#003F7E"/>
<path d="M283.163 53.6052C282.195 53.9217 281.197 54.2383 280.18 54.5549C281.206 54.2383 282.204 53.9217 283.173 53.6052" fill="#003F7E"/>
<path d="M277.638 55.3223C276.247 55.7348 274.798 56.1377 273.312 56.5502C274.798 56.1473 276.247 55.7348 277.638 55.3223Z" fill="#003F7E"/>
<path d="M270.29 57.356C269.858 57.4615 269.446 57.5574 269.014 57.6726C269.446 57.5574 269.858 57.4519 270.29 57.356Z" fill="#003F7E"/>
<path d="M201.748 65.1358C201.528 65.1358 201.298 65.1358 201.077 65.1262C201.298 65.1262 201.528 65.1262 201.748 65.1358Z" fill="#003F7E"/>
<path d="M227.611 64.2917C227.534 64.2917 227.438 64.3013 227.352 64.3108C227.438 64.3013 227.524 64.2917 227.611 64.2917Z" fill="#003F7E"/>
<path d="M222.085 64.6658C222.018 64.6658 221.961 64.6658 221.894 64.685C221.961 64.6754 222.018 64.6658 222.085 64.6658Z" fill="#003F7E"/>
<path d="M224.877 64.4931C224.8 64.4931 224.714 64.5027 224.647 64.5027C224.723 64.5027 224.8 64.4931 224.877 64.4931Z" fill="#003F7E"/>
<path d="M240.437 58.6894C240.369 58.6606 237.875 57.4135 237.875 57.4135H237.846L237.808 57.3752C236.983 56.9051 235.055 55.7828 235.055 53.9025C235.055 53.0008 235.419 52.195 236.072 51.6578C236.868 50.9863 238.086 50.7465 239.41 50.9767C241.07 51.2357 242.979 52.3101 245.07 54.1136C246.068 52.195 247.967 48.5497 248.648 47.2355C246.25 45.2593 243.909 44.1945 240.446 43.5806C236.158 42.9474 232.014 43.8684 229.117 46.0651C226.661 47.9454 225.145 50.6793 224.743 53.9985C224.675 54.5645 224.647 55.1208 224.647 55.6389C224.647 57.4615 225.021 59.0443 225.798 60.3682C231.026 60.253 236.532 59.994 242.087 59.5336C241.578 59.2362 241.031 58.9484 240.437 58.6798" fill="#003F7E"/>
<path d="M279.576 44.8756C279.365 46.3433 278.683 50.9671 278.357 53.2214C285.168 51.3125 293.428 48.5689 301.064 44.8756H279.576Z" fill="#003F7E"/>
<path d="M283.163 53.6051C282.204 53.9217 281.206 54.2383 280.18 54.5548C279.979 54.622 279.767 54.6796 279.556 54.7467C279.154 54.8714 278.731 54.9961 278.309 55.1208C278.089 55.188 277.858 55.2455 277.647 55.3223C276.256 55.7348 274.808 56.1377 273.321 56.5406C273.052 56.6173 272.774 56.7037 272.496 56.7708C272.074 56.8859 271.652 56.9914 271.22 57.1066C270.904 57.1929 270.606 57.2696 270.29 57.356C269.858 57.4615 269.445 57.567 269.014 57.6725C268.64 57.7685 268.256 57.8644 267.863 57.9507C267.191 58.1138 266.51 58.2769 265.829 58.44C265.436 58.5359 265.052 58.6318 264.649 58.7182C264.476 58.7565 264.304 58.7949 264.131 58.8333H264.112C260.15 59.735 255.929 60.5792 251.449 61.3466C251.344 61.3658 251.248 61.3754 251.142 61.3946C250.336 61.5289 249.521 61.6632 248.696 61.7975C248.495 61.8359 248.303 61.855 248.092 61.8934C247.228 62.0277 246.355 62.162 245.473 62.2867C245.406 62.2963 245.339 62.3155 245.281 62.3155C240.475 63.0158 235.419 63.6106 230.115 64.0806C230.095 64.0806 230.067 64.0806 230.038 64.0806C229.232 64.1478 228.417 64.2149 227.592 64.2821C227.515 64.2821 227.419 64.2916 227.333 64.3012C226.517 64.3684 225.683 64.4259 224.858 64.4835C224.781 64.4835 224.695 64.4931 224.627 64.4931C223.774 64.5507 222.92 64.5986 222.066 64.6466C221.999 64.6466 221.941 64.6466 221.874 64.6658C220.992 64.7137 220.128 64.7617 219.236 64.8001C219.198 64.8001 219.179 64.8001 219.14 64.8001C214.67 65.0111 210.056 65.1262 205.279 65.1262H205.288C205.163 65.1262 205.029 65.1262 204.904 65.1262C203.859 65.1262 202.794 65.1166 201.729 65.107C201.509 65.107 201.278 65.107 201.058 65.0974C197.221 65.0495 193.287 64.9152 189.278 64.7041H189.201C183.109 64.378 176.807 63.86 170.293 63.1309L177.776 56.0897C177.776 56.0897 182.14 57.3943 188.146 58.4783C187.004 51.6962 186.006 45.7198 185.853 44.8564H174.111C173.43 46.3241 160.038 76.513 158.456 79.9665H167.866C168.365 78.7865 171.531 71.2369 171.531 71.2369H181.344C181.344 71.2369 182.304 78.5755 182.515 79.9665H191.801C191.589 78.8249 190.697 73.5392 189.661 67.3806C196.271 67.7451 202.909 67.8218 209.077 67.7259C209.384 68.2535 209.557 68.8099 209.557 69.4143C209.557 69.6349 209.538 69.8363 209.49 70.0666C209.365 70.8532 208.943 71.5055 208.31 71.9564C207.034 72.8581 205.202 72.6567 203.936 72.436C200.933 71.9084 198.564 69.6349 196.635 67.7547C195.427 69.7212 192.904 73.827 192.088 75.17C195.628 78.3932 199.456 80.3502 203.504 80.9161C207.581 81.5301 211.648 80.6092 214.651 78.3932C217.27 76.465 218.929 73.6351 219.438 70.2297C219.601 69.2416 219.668 68.3207 219.62 67.4285C226.239 67.1407 231.736 66.7378 235.266 66.4213C236.417 67.2654 237.021 68.2727 237.021 69.4143C237.021 69.6349 236.993 69.8363 236.964 70.0666C236.83 70.8532 236.417 71.5055 235.774 71.9564C234.499 72.8581 232.666 72.6567 231.41 72.436C228.407 71.9084 226.028 69.6349 224.119 67.7547C222.91 69.7212 220.387 73.827 219.562 75.17C223.102 78.3932 226.93 80.3502 230.968 80.9161C235.065 81.5301 239.113 80.6092 242.115 78.3932C244.744 76.465 246.394 73.6351 246.902 70.2297C247.228 68.3303 247.152 66.6131 246.701 65.0879C248.197 64.8672 249.636 64.6466 251.018 64.4259C249.962 71.7933 248.974 78.7002 248.792 79.9665H271.46C271.681 78.422 272.256 74.3546 272.544 72.3881H258.807L259.747 65.8937H272.208C272.4 64.5507 272.841 61.4809 273.129 59.476C274.837 58.9388 275.681 58.6126 275.681 58.6126C275.681 58.6126 279.902 57.3464 285.351 55.3223C284.573 60.819 282.166 77.6162 281.83 79.9569H291.653C291.941 77.8752 295.442 53.5764 295.442 53.5764H302.541C302.752 52.0703 303.433 47.2451 303.75 45.0579C300.066 47.1012 293.102 50.3148 283.173 53.5764" fill="#003F7E"/>
<path d="M215.955 60.4449C215.102 59.783 214.104 59.1882 212.972 58.6798C212.924 58.651 210.43 57.4039 210.43 57.4039H210.382L210.353 57.3656C209.528 56.8955 207.6 55.7731 207.6 53.8929C207.6 52.9912 207.965 52.1854 208.607 51.6482C209.423 50.9767 210.641 50.7369 211.946 50.9671C213.605 51.2261 215.524 52.3005 217.615 54.104C218.603 52.1854 220.512 48.5401 221.184 47.2259C218.785 45.2497 216.464 44.1849 212.982 43.571C208.694 42.9378 204.549 43.8588 201.652 46.0555C199.197 47.9357 197.681 50.6697 197.278 53.9889C197.211 54.5548 197.182 55.1112 197.182 55.6293C197.182 57.1737 197.46 58.5455 198.007 59.735C198.209 59.7542 198.4 59.7638 198.611 59.7734C203.015 60.1091 209.02 60.3777 215.955 60.4353" fill="#003F7E"/>
<path d="M261.675 52.4348H275.048C275.268 50.8904 275.854 46.823 276.132 44.866H253.838C253.704 45.7774 252.84 51.7441 251.871 58.5359C254.951 58.1522 258.011 57.7013 260.994 57.1641L261.675 52.4348Z" fill="#003F7E"/>
<path d="M115.441 91.0942L111.239 114.952H98.9124C97.579 114.952 96.6293 114.674 96.0729 114.127C95.5261 113.599 95.3343 112.793 95.5261 111.738L99.1619 91.1038H115.441V91.0942ZM103.229 94.9122L100.361 111.067H107.134L109.973 94.9122H103.229ZM124.909 90.5187L120.046 118.127H115.24L120.103 90.5187H124.909Z" fill="#003F7E"/>
<path d="M143.011 91.1038L140.757 103.91H134.483L133.159 111.402H141.668L145.361 90.5187H150.167L148.23 101.483H151.808L153.736 90.5187H158.542L153.678 118.117H148.901L151.194 105.052H147.625L145.323 118.137H140.498L141.064 114.913H131.931C130.569 114.913 129.591 114.654 128.996 114.136C128.382 113.59 128.161 112.784 128.343 111.748L130.262 100.879H136.497L137.591 94.5669H131.375L131.989 91.0847H143.03L143.011 91.1038Z" fill="#003F7E"/>
<path d="M175.934 103.517C175.214 107.191 174.082 110.175 172.48 112.438C170.773 114.885 168.797 116.103 166.533 116.103C164.269 116.103 162.648 114.827 161.794 112.275C161.017 109.916 160.969 106.846 161.64 103.066C162.283 99.4113 163.396 96.4183 164.998 94.1064C166.744 91.6026 168.758 90.346 171.07 90.346C173.056 90.346 174.505 91.3053 175.425 93.2143C176.279 94.9985 176.577 97.3872 176.327 100.39C176.327 100.39 176.289 101.282 175.934 103.507M174.159 105.023L174.859 101.455H178.035L179.973 90.5091H184.615L179.752 118.108H175.08L177.392 105.023H174.159ZM167.953 96.1976C167.195 97.934 166.562 100.236 166.063 103.076C165.526 106.078 165.334 108.467 165.468 110.251C165.612 112.17 166.13 113.12 167.041 113.12C167.905 113.12 168.749 112.16 169.583 110.251C170.36 108.477 171.003 106.078 171.531 103.076C172.039 100.236 172.221 97.934 172.058 96.1976C171.905 94.3078 171.387 93.3581 170.523 93.3581C169.612 93.3581 168.758 94.2983 167.953 96.1976ZM191.685 90.5187L186.812 118.127H182.141L187.004 90.5187H191.685Z" fill="#003F7E"/>
<path d="M206.334 90.7393C205.72 94.2695 205.653 97.0514 206.123 99.0851C206.574 101.061 207.6 102.596 209.202 103.68L206.363 105.695C205.307 104.985 204.396 104.064 203.609 102.913C203.159 102.27 202.679 101.435 202.171 100.39C201.451 101.263 200.684 102.097 199.859 102.874C198.66 104.025 197.412 104.985 196.117 105.752L194.007 103.709C195.983 102.5 197.499 101.023 198.573 99.3058C199.916 97.2241 200.904 94.3654 201.547 90.7297H206.334V90.7393ZM217.759 90.5187L214.987 106.27H210.248L211.6 98.5575H208.176L208.722 95.4302H212.157L213.02 90.5283H217.759V90.5187ZM224.829 90.5187L222.057 106.27H217.318L220.09 90.5187H224.829ZM214.833 112.861C216.608 114.204 218.833 115.077 221.529 115.479L219.035 118.223C216.713 117.81 214.632 117.11 212.809 116.122C210.967 115.077 209.691 113.897 208.972 112.582C207.85 113.897 206.123 115.096 203.782 116.151C201.432 117.216 198.928 117.945 196.271 118.348L194.928 115.633C197.719 115.268 200.309 114.386 202.708 112.985C205.509 111.326 207.092 109.417 207.475 107.249H212.272C211.898 109.417 212.751 111.278 214.843 112.861" fill="#003F7E"/>
<path d="M257.215 91.0655L256.658 94.2311H246.71C246.499 95.4206 247.459 96.4663 249.579 97.3392C251.612 98.193 254.308 98.7398 257.675 98.97L255.162 101.464C252.092 101.167 249.607 100.735 247.708 100.179C245.837 99.6511 244.475 98.9796 243.641 98.1642C242.499 98.9796 240.868 99.6511 238.739 100.179C236.667 100.716 234.134 101.148 231.131 101.464L229.76 98.9316C233.203 98.7206 236.033 98.1738 238.269 97.3008C240.504 96.4759 241.732 95.4494 241.933 94.2311H232.436L232.992 91.0655H257.224H257.215ZM256.994 103.239L256.438 106.405H228.234L228.8 103.239H256.994ZM235.631 112.055C234.335 112.458 233.645 112.966 233.539 113.59C233.434 114.184 233.942 114.693 235.093 115.105C236.398 115.566 238.278 115.815 240.724 115.815C243.171 115.815 245.06 115.575 246.509 115.105C247.804 114.693 248.514 114.194 248.629 113.59C248.734 112.976 248.207 112.467 247.046 112.055C245.732 111.604 243.88 111.383 241.501 111.383C239.122 111.383 237.108 111.604 235.631 112.055ZM251.065 109.877C252.927 110.875 253.732 112.112 253.464 113.59C253.214 115.067 251.977 116.304 249.761 117.312C247.286 118.444 244.082 119 240.158 119C236.235 119 233.156 118.434 231.055 117.312C229.194 116.304 228.397 115.067 228.656 113.59C228.915 112.122 230.143 110.884 232.369 109.877C234.863 108.764 238.086 108.208 242.058 108.208C246.029 108.208 248.984 108.774 251.065 109.877Z" fill="#003F7E"/>
<path d="M290.819 90.5187L287.125 111.441H282.31L282.751 108.899H277.225L277.772 105.791H283.288L283.681 103.603H273.11L272.007 109.877H268.045L267.182 114.808H286.722L286.166 117.974H266.069C264.524 117.974 263.46 117.724 262.874 117.235C262.328 116.765 262.145 115.988 262.337 114.894L263.45 108.611H267.412L268.294 103.603H261.272L261.819 100.495H273.897C274.338 99.6799 274.712 98.7878 274.981 97.8093C275.22 96.9843 275.47 95.7852 275.748 94.2215H264.189L264.745 91.0559H281.072L280.362 95.0753C280.17 96.1497 279.95 97.061 279.691 97.8381C279.384 98.759 279.019 99.6511 278.559 100.505H284.238L285.993 90.5187H290.819Z" fill="#003F7E"/>
</g>
<defs>
<clipPath id="clip0_31_3901">
<rect width="345.277" height="119" fill="white"/>
</clipPath>
</defs>
</svg>
