<svg width="18" height="18" viewBox="0 0 18 18" fill="none" xmlns="http://www.w3.org/2000/svg">
<g id="radio_button_checked">
<g id="Vector">
<path d="M9 1.5C4.86 1.5 1.5 4.86 1.5 9C1.5 13.14 4.86 16.5 9 16.5C13.14 16.5 16.5 13.14 16.5 9C16.5 4.86 13.14 1.5 9 1.5ZM9 15C5.685 15 3 12.315 3 9C3 5.685 5.685 3 9 3C12.315 3 15 5.685 15 9C15 12.315 12.315 15 9 15Z" fill="#BFBFBF"/>
<path d="M9 12.75C11.0711 12.75 12.75 11.0711 12.75 9C12.75 6.92893 11.0711 5.25 9 5.25C6.92893 5.25 5.25 6.92893 5.25 9C5.25 11.0711 6.92893 12.75 9 12.75Z" fill="#BFBFBF"/>
</g>
</g>
</svg>
