<svg width="16" height="17" viewBox="0 0 16 17" fill="none" xmlns="http://www.w3.org/2000/svg">
<path d="M14.6666 4.23923L11.5999 1.66589L10.7399 2.68589L13.8066 5.25923L14.6666 4.23923ZM5.25325 2.68589L4.39992 1.66589L1.33325 4.23256L2.19325 5.25256L5.25325 2.68589ZM8.33325 5.75923H7.33325V9.75923L10.4999 11.6592L10.9999 10.8392L8.33325 9.25923V5.75923ZM7.99992 3.09256C4.68659 3.09256 1.99992 5.77923 1.99992 9.09256C1.99992 12.4059 4.67992 15.0926 7.99992 15.0926C11.3133 15.0926 13.9999 12.4059 13.9999 9.09256C13.9999 5.77923 11.3133 3.09256 7.99992 3.09256ZM7.99992 13.7592C5.41992 13.7592 3.33325 11.6726 3.33325 9.09256C3.33325 6.51256 5.41992 4.42589 7.99992 4.42589C10.5799 4.42589 12.6666 6.51256 12.6666 9.09256C12.6666 11.6726 10.5799 13.7592 7.99992 13.7592Z" fill="white"/>
</svg>
