<svg width="16" height="16" viewBox="0 0 16 16" fill="none" xmlns="http://www.w3.org/2000/svg">
<path d="M2.66659 3.33329H3.99992V5.33329H10.6666V3.33329H11.9999V6.66663H13.3333V3.33329C13.3333 2.59996 12.7333 1.99996 11.9999 1.99996H9.21325C8.93325 1.22663 8.19992 0.666626 7.33325 0.666626C6.46659 0.666626 5.73325 1.22663 5.45325 1.99996H2.66659C1.93325 1.99996 1.33325 2.59996 1.33325 3.33329V12.6666C1.33325 13.4 1.93325 14 2.66659 14H5.99992V12.6666H2.66659V3.33329ZM7.33325 1.99996C7.69992 1.99996 7.99992 2.29996 7.99992 2.66663C7.99992 3.03329 7.69992 3.33329 7.33325 3.33329C6.96659 3.33329 6.66659 3.03329 6.66659 2.66663C6.66659 2.29996 6.96659 1.99996 7.33325 1.99996Z" fill="white"/>
<path d="M12.8666 12.6C13.1333 12.1333 13.3333 11.6 13.3333 11C13.3333 9.33329 11.9999 7.99996 10.3333 7.99996C8.66659 7.99996 7.33325 9.33329 7.33325 11C7.33325 12.6666 8.66659 14 10.3333 14C10.9333 14 11.4666 13.8 11.9333 13.5333L13.7333 15.3333L14.6666 14.4L12.8666 12.6ZM10.3333 12.6666C9.39992 12.6666 8.66659 11.9333 8.66659 11C8.66659 10.0666 9.39992 9.33329 10.3333 9.33329C11.2666 9.33329 11.9999 10.0666 11.9999 11C11.9999 11.9333 11.2666 12.6666 10.3333 12.6666Z" fill="white"/>
</svg>
