<svg width="16" height="16" viewBox="0 0 16 16" fill="none" xmlns="http://www.w3.org/2000/svg">
<g id="downloading">
<path id="Vector" d="M12.2301 2.88821C11.2434 2.08909 10.0234 1.56074 8.68343 1.42865V2.76273C9.65676 2.88161 10.5434 3.26466 11.2834 3.83264L12.2301 2.88821ZM13.3034 7.33955H14.6501C14.5168 6.01208 13.9834 4.80348 13.1768 3.82603L12.2234 4.76385C12.7968 5.49694 13.1834 6.37532 13.3034 7.33955ZM12.2234 11.2361L13.1768 12.1806C13.9834 11.2031 14.5168 9.9879 14.6501 8.66703H13.3034C13.1834 9.62466 12.7968 10.503 12.2234 11.2361ZM8.68343 13.2372V14.5713C10.0234 14.4392 11.2434 13.9109 12.2301 13.1118L11.2768 12.1673C10.5434 12.7353 9.65676 13.1184 8.68343 13.2372ZM10.4101 7.06877L8.68343 8.7727V4.69781H7.3501V8.7727L5.62343 7.06217L4.68343 7.99999L8.01676 11.3022L11.3501 7.99999L10.4101 7.06877ZM7.3501 13.2372V14.5713C3.98343 14.2411 1.3501 11.4277 1.3501 7.99999C1.3501 4.57233 3.98343 1.75887 7.3501 1.42865V2.76273C4.71676 3.08634 2.68343 5.30541 2.68343 7.99999C2.68343 10.6946 4.71676 12.9136 7.3501 13.2372Z" fill="#3D3D3D"/>
</g>
</svg>
