<svg width="20" height="18" viewBox="0 0 20 18" fill="none" xmlns="http://www.w3.org/2000/svg">
<path d="M16.8961 11.5L13.7923 8.5L20 8.5L16.8961 11.5Z" fill="white"/>
<path fill-rule="evenodd" clip-rule="evenodd" d="M8.76001 6.0749C8.76001 7.49698 7.58881 8.6498 6.14405 8.6498C4.69929 8.6498 3.52808 7.49698 3.52808 6.0749C3.52808 4.65282 4.69929 3.5 6.14405 3.5C7.58881 3.5 8.76001 4.65282 8.76001 6.0749ZM7.88803 6.0749C7.88803 7.02295 7.10722 7.7915 6.14405 7.7915C5.18088 7.7915 4.40007 7.02295 4.40007 6.0749C4.40007 5.12685 5.18088 4.3583 6.14405 4.3583C7.10722 4.3583 7.88803 5.12685 7.88803 6.0749Z" fill="white"/>
<path d="M6.14405 9.93725C3.32125 9.93725 0.916161 11.5802 0 13.882C0.223183 14.1002 0.45829 14.3065 0.704274 14.5C1.38649 12.3867 3.52665 10.7955 6.14405 10.7955C8.76145 10.7955 10.9016 12.3867 11.5838 14.5C11.8298 14.3065 12.0649 14.1002 12.2881 13.882C11.3719 11.5802 8.96685 9.93725 6.14405 9.93725Z" fill="white"/>
</svg>
