<svg width="16" height="16" viewBox="0 0 16 16" fill="none" xmlns="http://www.w3.org/2000/svg">
<g id="alarm">
<path id="Vector" d="M8.33309 5.39666H7.33309V9.39666L10.4998 11.2967L10.9998 10.4767L8.33309 8.89666V5.39666ZM11.5578 1.26999L14.6291 3.83332L13.7758 4.85666L10.7024 2.29466L11.5578 1.26999ZM4.44176 1.26999L5.29643 2.29399L2.22443 4.85666L1.37109 3.83266L4.44176 1.26999ZM7.99976 2.72999C4.68643 2.72999 1.99976 5.41666 1.99976 8.72999C1.99976 12.0433 4.68643 14.73 7.99976 14.73C11.3131 14.73 13.9998 12.0433 13.9998 8.72999C13.9998 5.41666 11.3131 2.72999 7.99976 2.72999ZM7.99976 13.3967C5.42643 13.3967 3.33309 11.3033 3.33309 8.72999C3.33309 6.15666 5.42643 4.06332 7.99976 4.06332C10.5731 4.06332 12.6664 6.15666 12.6664 8.72999C12.6664 11.3033 10.5731 13.3967 7.99976 13.3967Z" fill="#828282"/>
</g>
</svg>
