<svg width="20" height="20" viewBox="0 0 20 20" fill="none" xmlns="http://www.w3.org/2000/svg">
<path d="M17.5002 2.5H2.50016C1.66683 2.5 0.833496 3.33333 0.833496 4.16667V15.8333C0.833496 16.75 1.5835 17.5 2.50016 17.5H17.5002C18.3335 17.5 19.1668 16.6667 19.1668 15.8333V4.16667C19.1668 3.33333 18.3335 2.5 17.5002 2.5ZM17.5002 15.7667C17.4835 15.7917 17.4502 15.8167 17.4335 15.8333H2.50016V4.23333L2.56683 4.16667H17.4252C17.4502 4.18333 17.4752 4.21667 17.4918 4.23333V15.7667H17.5002ZM9.16683 12.925L7.0835 10.4167L4.16683 14.1667H15.8335L12.0835 9.16667L9.16683 12.925Z" fill="#006FB3"/>
</svg>
