<svg width="16" height="16" viewBox="0 0 16 16" fill="none" xmlns="http://www.w3.org/2000/svg">
<g id="assignment_return">
<path id="Vector" d="M8 10H10.6667V7.33334H8V5.33334L4.66667 8.66668L8 12V10ZM12.6667 2.66668H9.88C9.6 1.89334 8.86667 1.33334 8 1.33334C7.13333 1.33334 6.4 1.89334 6.12 2.66668H3.33333C3.24 2.66668 3.15333 2.67334 3.06667 2.69334C2.80667 2.74668 2.57333 2.88001 2.39333 3.06001C2.27333 3.18001 2.17333 3.32668 2.10667 3.48668C2.04 3.64001 2 3.81334 2 4.00001V13.3333C2 13.5133 2.04 13.6933 2.10667 13.8533C2.17333 14.0133 2.27333 14.1533 2.39333 14.28C2.57333 14.46 2.80667 14.5933 3.06667 14.6467C3.15333 14.66 3.24 14.6667 3.33333 14.6667H12.6667C13.4 14.6667 14 14.0667 14 13.3333V4.00001C14 3.26668 13.4 2.66668 12.6667 2.66668ZM8 2.50001C8.27333 2.50001 8.5 2.72668 8.5 3.00001C8.5 3.27334 8.27333 3.50001 8 3.50001C7.72667 3.50001 7.5 3.27334 7.5 3.00001C7.5 2.72668 7.72667 2.50001 8 2.50001ZM12.6667 13.3333H3.33333V4.00001H12.6667V13.3333Z" fill="#828282"/>
</g>
</svg>
