<svg width="16" height="16" viewBox="0 0 16 16" fill="none" xmlns="http://www.w3.org/2000/svg">
<g id="app_registration">
<g id="Vector">
<path d="M9.00016 2.66666H6.3335V5.33332H9.00016V2.66666Z" fill="#3D3D3D"/>
<path d="M5.00016 10.6667H2.3335V13.3333H5.00016V10.6667Z" fill="#3D3D3D"/>
<path d="M5.00016 6.66666H2.3335V9.33332H5.00016V6.66666Z" fill="#3D3D3D"/>
<path d="M5.00016 2.66666H2.3335V5.33332H5.00016V2.66666Z" fill="#3D3D3D"/>
<path d="M13.0002 2.66666H10.3335V5.33332H13.0002V2.66666Z" fill="#3D3D3D"/>
<path d="M7.00016 11.9067V13.3333H8.40016L12.3868 9.35332L10.9735 7.93999L7.00016 11.9067Z" fill="#3D3D3D"/>
<path d="M9.00016 8.01999V6.66666H6.3335V9.33332H7.68683L9.00016 8.01999Z" fill="#3D3D3D"/>
<path d="M13.5668 7.70666L12.6268 6.76666C12.4935 6.63332 12.2868 6.63332 12.1535 6.76666L11.4468 7.47332L12.8602 8.88666L13.5668 8.17999C13.7002 8.04666 13.7002 7.83999 13.5668 7.70666Z" fill="#3D3D3D"/>
</g>
</g>
</svg>
