<svg width="14" height="14" viewBox="0 0 14 14" fill="none" xmlns="http://www.w3.org/2000/svg">
<path d="M7.7 0V2.12632C10.073 2.47018 11.9 4.50526 11.9 6.98246C11.9 7.61403 11.774 8.21053 11.564 8.76491L13.384 9.83859C13.776 8.96842 14 8 14 6.98246C14 3.34737 11.235 0.350877 7.7 0ZM7 11.8947C4.291 11.8947 2.1 9.69824 2.1 6.98246C2.1 4.50526 3.927 2.47018 6.3 2.12632V0C2.758 0.350877 0 3.34035 0 6.98246C0 10.8561 3.129 14 6.993 14C9.31 14 11.361 12.8702 12.635 11.1298L10.815 10.0561C9.919 11.1789 8.547 11.8947 7 11.8947Z" fill="url(#paint0_linear_31_2454)"/>
<defs>
<linearGradient id="paint0_linear_31_2454" x1="7" y1="0" x2="7" y2="14" gradientUnits="userSpaceOnUse">
<stop stop-color="#BA1A1A"/>
<stop offset="1" stop-color="#1610CB"/>
</linearGradient>
</defs>
</svg>
