<svg width="20" height="20" viewBox="0 0 20 20" fill="none" xmlns="http://www.w3.org/2000/svg">
<path d="M16.6665 1.66666H6.6665C5.74984 1.66666 4.99984 2.41666 4.99984 3.33332V13.3333C4.99984 14.25 5.74984 15 6.6665 15H16.6665C17.5832 15 18.3332 14.25 18.3332 13.3333V3.33332C18.3332 2.41666 17.5832 1.66666 16.6665 1.66666ZM16.6665 13.3333H6.6665V3.33332H16.6665V13.3333ZM3.33317 4.99999H1.6665V16.6667C1.6665 17.5833 2.4165 18.3333 3.33317 18.3333H14.9998V16.6667H3.33317V4.99999ZM13.3332 9.99999V7.49999C13.3332 7.04166 12.9582 6.66666 12.4998 6.66666H10.8332V10.8333H12.4998C12.9582 10.8333 13.3332 10.4583 13.3332 9.99999ZM11.6665 7.49999H12.4998V9.99999H11.6665V7.49999ZM14.9998 9.16666H15.8332V8.33332H14.9998V7.49999H15.8332V6.66666H14.1665V10.8333H14.9998V9.16666ZM8.33317 9.16666H9.1665C9.62484 9.16666 9.99984 8.79166 9.99984 8.33332V7.49999C9.99984 7.04166 9.62484 6.66666 9.1665 6.66666H7.49984V10.8333H8.33317V9.16666ZM8.33317 7.49999H9.1665V8.33332H8.33317V7.49999Z" fill="#006FB3"/>
</svg>
